<svg id="Capa_1" enable-background="new 0 0 512 512" height="512" viewBox="0 0 512 512" width="512" xmlns="http://www.w3.org/2000/svg" xmlns:xlink="http://www.w3.org/1999/xlink"><linearGradient id="SVGID_1_" gradientUnits="userSpaceOnUse" x1="0" x2="512" y1="256" y2="256"><stop offset="0" stop-color="#80d8ff"/><stop offset="1" stop-color="#ea80fc"/></linearGradient><g><path d="m256.002 26.01c-140.469 0-255.27 114.144-255.999 254.645-.333 64.042 23.106 125.452 65.998 172.92 23.594 26.111 58.243 37.393 92.685 30.176 74.655-15.641 102.931-106.938 53.367-162.895-20.221-22.828-19.84-57.917 2.559-80.287 22.902-22.872 59.443-22.913 82.359-.549 22.783 22.234 23.351 57.816 2.991 80.819-49.657 56.105-21.241 147.246 53.378 162.987 34.336 7.245 68.769-3.959 92.178-29.722 42.871-47.181 66.482-108.298 66.482-172.094 0-141.517-114.534-256-255.998-256zm159.912 401.193c-13.818 15.208-34.126 21.742-54.317 17.484-43.901-9.261-61.594-63.542-31.682-97.338 34.121-38.552 33.464-98.412-5.007-135.957-38.54-37.613-100.137-37.502-138.562.873-37.688 37.639-38.193 96.776-4.236 135.112 29.583 33.398 12.571 87.962-31.626 97.222-20.364 4.268-40.853-2.403-54.804-17.844-36.185-40.045-55.958-91.858-55.677-145.895.606-116.967 95.767-214.85 216.367-214.85 119.21.199 215.63 96.74 215.63 216 0 53.827-19.918 105.391-56.086 145.193z" fill="url(#SVGID_1_)"/></g></svg>