<?xml version="1.0" encoding="iso-8859-1"?>
<!-- Generator: Adobe Illustrator 19.0.0, SVG Export Plug-In . SVG Version: 6.00 Build 0)  -->
<svg version="1.1" id="Capa_1" xmlns="http://www.w3.org/2000/svg" xmlns:xlink="http://www.w3.org/1999/xlink" x="0px" y="0px"
	 viewBox="0 0 334.367 334.367" style="enable-background:new 0 0 334.367 334.367;" xml:space="preserve">
<g>
	<path style="fill:#00EFD1;" d="M323.918,52.245H10.449C4.678,52.245,0,47.567,0,41.796s4.678-10.449,10.449-10.449h313.469
		c5.771,0,10.449,4.678,10.449,10.449S329.689,52.245,323.918,52.245z"/>
	<path style="fill:#00EFD1;" d="M276.898,135.837H57.469c-5.771,0-10.449-4.678-10.449-10.449c0-5.771,4.678-10.449,10.449-10.449
		h219.429c5.771,0,10.449,4.678,10.449,10.449C287.347,131.159,282.669,135.837,276.898,135.837z"/>
	<path style="fill:#00EFD1;" d="M323.918,219.429H10.449C4.678,219.429,0,214.75,0,208.98c0-5.771,4.678-10.449,10.449-10.449
		h313.469c5.771,0,10.449,4.678,10.449,10.449C334.367,214.75,329.689,219.429,323.918,219.429z"/>
	<path style="fill:#00EFD1;" d="M235.102,303.02H94.041c-5.771,0-10.449-4.678-10.449-10.449c0-5.771,4.678-10.449,10.449-10.449
		h141.061c5.771,0,10.449,4.678,10.449,10.449C245.551,298.342,240.873,303.02,235.102,303.02z"/>
</g>
<g>
</g>
<g>
</g>
<g>
</g>
<g>
</g>
<g>
</g>
<g>
</g>
<g>
</g>
<g>
</g>
<g>
</g>
<g>
</g>
<g>
</g>
<g>
</g>
<g>
</g>
<g>
</g>
<g>
</g>
</svg>
