<svg id="Capa_1" enable-background="new 0 0 510 510" height="512" viewBox="0 0 510 510" width="512" xmlns="http://www.w3.org/2000/svg" xmlns:xlink="http://www.w3.org/1999/xlink"><linearGradient id="SVGID_1_" gradientUnits="userSpaceOnUse" x1="69.57" x2="86.139" y1="91.43" y2="107.998"><stop offset="0" stop-color="#cdec7a"/><stop offset=".2157" stop-color="#b0e995"/><stop offset=".5613" stop-color="#87e4bb"/><stop offset=".8347" stop-color="#6ee1d2"/><stop offset="1" stop-color="#65e0db"/></linearGradient><radialGradient id="SVGID_2_" cx="197.865" cy="183.135" gradientUnits="userSpaceOnUse" r="319.082"><stop offset="0" stop-color="#18cefb"/><stop offset=".3774" stop-color="#1accfb"/><stop offset=".5985" stop-color="#22c3fa"/><stop offset=".7792" stop-color="#2fb5f9"/><stop offset=".9372" stop-color="#41a1f7"/><stop offset="1" stop-color="#4a97f6"/></radialGradient><linearGradient id="lg1"><stop offset="0" stop-color="#4a97f6" stop-opacity="0"/><stop offset="1" stop-color="#0469bb"/></linearGradient><linearGradient id="SVGID_3_" gradientUnits="userSpaceOnUse" x1="346.115" x2="627.696" xlink:href="#lg1" y1="267.01" y2="287.997"/><linearGradient id="SVGID_4_" gradientUnits="userSpaceOnUse" x1="60.019" x2="289.132" xlink:href="#lg1" y1="296.109" y2="373.063"/><linearGradient id="lg2"><stop offset="0" stop-color="#f8f6fb"/><stop offset="1" stop-color="#efdcfb"/></linearGradient><linearGradient id="SVGID_5_" gradientUnits="userSpaceOnUse" x1="184.733" x2="216.113" xlink:href="#lg2" y1="187.868" y2="198.408"/><linearGradient id="SVGID_6_" gradientUnits="userSpaceOnUse" x1="324.904" x2="355.461" xlink:href="#lg2" y1="237.597" y2="247.86"/><linearGradient id="SVGID_7_" gradientUnits="userSpaceOnUse" x1="160.109" x2="179.469" xlink:href="#lg2" y1="239.158" y2="245.661"/><linearGradient id="SVGID_8_" gradientUnits="userSpaceOnUse" x1="233.663" x2="276.621" xlink:href="#lg2" y1="166.716" y2="181.145"/><linearGradient id="SVGID_9_" gradientUnits="userSpaceOnUse" x1="288.482" x2="331.116" xlink:href="#lg2" y1="186.17" y2="200.49"/><linearGradient id="lg3"><stop offset="0" stop-color="#ffd945"/><stop offset=".3043" stop-color="#ffcd3e"/><stop offset=".8558" stop-color="#ffad2b"/><stop offset="1" stop-color="#ffa325"/></linearGradient><linearGradient id="SVGID_10_" gradientUnits="userSpaceOnUse" x1="15.646" x2="176.553" xlink:href="#lg3" y1="387.417" y2="387.417"/><linearGradient id="SVGID_11_" gradientUnits="userSpaceOnUse" x1="333.518" x2="494.355" xlink:href="#lg3" y1="387.43" y2="387.43"/><linearGradient id="lg4"><stop offset="0" stop-color="#f82814" stop-opacity="0"/><stop offset=".2456" stop-color="#f12817" stop-opacity=".246"/><stop offset=".6068" stop-color="#dd2820" stop-opacity=".607"/><stop offset="1" stop-color="#c0272d"/></linearGradient><linearGradient id="SVGID_12_" gradientUnits="userSpaceOnUse" x1="126" x2="197.985" xlink:href="#lg4" y1="358.919" y2="358.919"/><linearGradient id="SVGID_13_" gradientUnits="userSpaceOnUse" x1="390.741" x2="545.408" xlink:href="#lg4" y1="360.045" y2="459.378"/><g><path d="m123.73 86.336-65.246 56.027-16.468-19.178c-5.014-5.839-4.345-14.637 1.494-19.651l44.1-37.869c5.839-5.014 14.637-4.345 19.651 1.494z" fill="url(#SVGID_1_)"/><g><path d="m255.001 41.239c-140.851 0-254.452 113.138-254.999 253.988-.2 51.545 14.893 99.552 41.003 139.743 42.906 66.047 145.873 27.691 134.717-50.276-4.472-31.252-6.979-61.725-7.05-87.335-.133-47.693 38.168-87.196 85.86-87.449 47.894-.254 86.8 38.494 86.8 86.329 0 25.712-2.49 56.441-6.984 87.985-11.149 78.242 91.608 117.01 134.658 50.732 25.931-39.925 40.994-87.562 40.994-138.717 0-140.832-114.167-254.999-254.999-255z" fill="url(#SVGID_2_)"/><path d="m376.44 71.959c48.872 46.458 79.342 112.091 79.342 184.844 0 51.155-15.063 98.792-40.996 138.717-18.258 28.11-47.255 37.318-73.749 32.639 23.191 46.038 94.075 58.975 127.966 6.796 25.934-39.924 40.997-87.561 40.997-138.716 0-96.866-54.011-181.116-133.56-224.28z" fill="url(#SVGID_3_)"/><path d="m219.552 192.505c-47.692.227-85.993 35.654-85.86 78.426.071 22.968 2.578 50.296 7.05 78.324 9.444 59.192-62.895 92.918-111.349 65.941 3.581 6.777 7.455 13.375 11.612 19.773 42.906 66.047 145.872 27.691 134.716-50.275-4.472-31.252-6.979-61.725-7.05-87.335-.133-47.693 38.168-87.196 85.86-87.449 8.432-.045 16.575 1.142 24.286 3.352-15.521-12.959-36.358-20.866-59.265-20.757z" fill="url(#SVGID_4_)"/></g><g><path d="m207.921 176.361c-9.609 5.351-18.186 12.244-25.491 20.489-3.114 3.514-2.79 8.886.725 11.999 1.512 1.34 3.369 2.043 5.242 2.13 2.478.114 4.984-.853 6.756-2.854 6.031-6.805 13.11-12.494 21.039-16.91 4.101-2.284 5.575-7.46 3.291-11.561-2.283-4.103-7.46-5.576-11.562-3.293z" fill="url(#SVGID_5_)"/><path d="m344.934 224.966c-1.75-4.357-6.703-6.466-11.057-4.715-4.355 1.751-6.467 6.702-4.716 11.057 3.381 8.408 5.285 17.277 5.661 26.361.183 4.438 3.738 7.94 8.093 8.14.248.011.498.012.751.002 4.69-.194 8.336-4.154 8.142-8.844-.456-11.025-2.769-21.791-6.874-32.001z" fill="url(#SVGID_6_)"/><path d="m176.241 219.973c-4.347-1.764-9.307.332-11.071 4.682-4.121 10.164-6.469 20.922-6.977 31.974-.215 4.689 3.412 8.666 8.101 8.881 4.689.216 8.666-3.412 8.881-8.101.419-9.122 2.353-17.992 5.749-26.365 1.765-4.35-.332-9.307-4.683-11.071z" fill="url(#SVGID_7_)"/><path d="m271.505 165.583c-10.74-1.844-21.964-1.874-32.698-.065-4.63.78-7.75 5.165-6.97 9.794.677 4.02 4.071 6.901 7.984 7.081.593.027 1.2-.008 1.81-.111 8.854-1.491 18.134-1.467 26.996.057 4.632.792 9.022-2.311 9.817-6.938.794-4.628-2.312-9.022-6.939-9.818z" fill="url(#SVGID_8_)"/><path d="m327.782 197.114c-7.281-8.284-15.833-15.213-25.42-20.593-4.096-2.298-9.275-.841-11.573 3.253s-.842 9.275 3.253 11.573c7.907 4.437 14.962 10.153 20.971 16.99 1.587 1.806 3.769 2.777 5.995 2.88 2.121.098 4.28-.595 6-2.107 3.526-3.099 3.873-8.469.774-11.996z" fill="url(#SVGID_9_)"/></g><g><path d="m15.646 384.356c6.592 17.899 15.124 34.859 25.359 50.614 5.87 9.035 12.868 16.104 20.539 21.397-.009-.459-.035-.914-.035-1.376 0-39.206 31.783-70.989 70.989-70.989 16.622 0 31.897 5.728 43.994 15.298.186-4.693-.049-9.565-.771-14.606-3.028-21.16-5.151-41.957-6.231-61.135-11.766-3.306-24.169-5.093-36.992-5.093-49.547.001-92.928 26.396-116.852 65.89z" fill="url(#SVGID_10_)"/><path d="m377.502 318.467c-12.824 0-25.227 1.787-36.994 5.093-1.072 19.037-3.169 39.665-6.162 60.664-.739 5.185-.964 10.19-.753 15.009 12.084-9.529 27.326-15.231 43.909-15.231 39.206 0 70.989 31.783 70.989 70.989 0 .47-.026.933-.035 1.401 7.667-5.301 14.668-12.381 20.549-21.436 10.23-15.751 18.761-32.706 25.35-50.599-23.925-39.495-67.306-65.89-116.853-65.89z" fill="url(#SVGID_11_)"/></g><g><path d="m169.49 323.56c-10.506-2.952-21.521-4.682-32.888-5.021 1.094 10.019 2.481 20.319 4.14 30.717 2.068 12.965.213 24.708-4.455 34.859 15.149.799 29.034 6.35 40.205 15.187.186-4.693-.049-9.564-.771-14.606-3.028-21.161-5.151-41.958-6.231-61.136z" fill="url(#SVGID_12_)"/></g><path d="m494.355 384.357c-12.379-20.435-29.975-37.348-50.93-48.927-6.85 21.154-16.388 41.096-28.214 59.426 19.986 12.559 33.28 34.789 33.28 60.135 0 .062.122.485.329 1.16 7.526-5.273 14.395-12.283 20.184-21.195 10.231-15.75 18.761-32.705 25.351-50.599z" fill="url(#SVGID_13_)"/></g></svg>