<?xml version="1.0" encoding="iso-8859-1"?>
<!-- Generator: Adobe Illustrator 21.0.0, SVG Export Plug-In . SVG Version: 6.00 Build 0)  -->
<svg version="1.1" id="Capa_1" xmlns="http://www.w3.org/2000/svg" xmlns:xlink="http://www.w3.org/1999/xlink" x="0px" y="0px"
	 viewBox="0 0 509.016 509.016" style="enable-background:new 0 0 509.016 509.016;" xml:space="preserve">
<g>
	<g transform="translate(1 1)">
		<path style="fill:#0377BC;" d="M449.774,158.149v51.2c0,0-7.253,21.845-69.035,18.347h-0.341
			c-4.949-0.256-10.24-0.683-15.957-1.28H142.574c-13.783,1.712-27.695,2.141-41.557,1.28c-0.171,0.085-0.256,0.085-0.341,0
			c-38.315-2.901-43.435-18.347-43.435-18.347v-51.2c0-68.267,42.667-85.333,42.667-85.333h307.2
			C407.108,72.816,449.774,89.882,449.774,158.149z"/>
		<path style="fill:#02A9F4;" d="M424.174,158.149v51.2c0,0-5.12,15.445-43.435,18.347h-0.341
			c-13.862,0.861-27.774,0.432-41.557-1.28H116.974c-5.717,0.597-11.008,1.024-15.957,1.28c-0.171,0.085-0.256,0.085-0.341,0
			c-38.315-2.901-43.435-18.347-43.435-18.347v-51.2c0-68.267,42.667-85.333,42.667-85.333h281.6
			C381.508,72.816,424.174,89.882,424.174,158.149z"/>
		<path style="fill:#1566C0;" d="M369.732,468.592c1.834,8.633-3.245,17.234-11.691,19.797
			c-16.384,4.949-48.128,11.093-104.533,11.093c-4.437,0-8.704,0-12.8-0.171c-30.928,0.473-61.781-3.201-91.733-10.923
			c-8.446-2.563-13.524-11.164-11.691-19.797c9.891-51.68,14.523-104.229,13.824-156.843c0-110.933-51.2-238.933-51.2-238.933
			c31.703-10.931,60.769-28.371,85.333-51.2h136.533c24.564,22.829,53.631,40.269,85.333,51.2c0,0-51.2,128-51.2,238.933
			C355.209,364.362,359.841,416.911,369.732,468.592z"/>
		<path style="fill:#2296F3;" d="M344.132,468.592c1.834,8.633-3.245,17.234-11.691,19.797
			c-29.953,7.722-60.805,11.395-91.733,10.923c-30.928,0.473-61.781-3.201-91.733-10.923c-8.446-2.563-13.524-11.164-11.691-19.797
			c9.891-51.68,14.523-104.229,13.824-156.843c0-110.933-51.2-238.933-51.2-238.933c31.703-10.931,60.769-28.371,85.333-51.2
			h110.933c24.564,22.829,53.631,40.269,85.333,51.2c0,0-51.2,128-51.2,238.933C329.609,364.362,334.241,416.911,344.132,468.592z"
			/>
		<g>
			<path style="fill:#1566C0;" d="M253.508,21.616c-16.062-0.153-31.811-4.463-45.713-12.51c-3.369-2.404-7.976-2.044-10.931,0.853
				l-11.622,11.657c0,0,17.067,59.733,68.267,76.8"/>
			<path style="fill:#1566C0;" d="M253.508,21.616c16.062-0.153,31.811-4.463,45.713-12.51c3.369-2.404,7.976-2.044,10.931,0.853
				l11.622,11.657c0,0-17.067,59.733-68.267,76.8"/>
		</g>
		<polygon style="fill:#FFFFFF;" points="287.641,115.482 287.641,166.682 313.241,183.749 338.841,166.682 338.841,115.482 		"/>
	</g>
	<g>
		<path d="M114.51,237.698c6.699,0,14.097-0.324,22.246-1.033c4.304,25.138,6.584,50.581,6.818,76.083
			c0.7,52.023-3.875,103.984-13.653,155.085c-2.822,12.995,4.855,25.967,17.604,29.747c17.382,5.214,50.057,11.435,106.982,11.435
			s89.6-6.221,106.965-11.435c12.752-3.773,20.437-16.742,17.621-29.739c-9.778-51.104-14.353-103.067-13.653-155.093
			c0.237-25.503,2.519-50.946,6.827-76.083c8.149,0.708,15.548,1.033,22.246,1.033c53.06,0,62.831-20.045,64.358-24.653
			c0.289-0.87,0.436-1.78,0.435-2.697v-51.2c0-73.207-46.08-92.467-48.034-93.261c-0.085,0-0.171,0-0.247,0
			c-0.077,0-0.137-0.102-0.222-0.128c-30.416-10.562-58.326-27.283-81.988-49.118L317.194,4.969
			c-5.866-5.836-15.073-6.624-21.845-1.869c-12.467,7.053-26.518,10.832-40.841,10.982c-14.322-0.151-28.372-3.926-40.841-10.974
			c-6.766-4.755-15.968-3.975-21.837,1.852l-11.622,11.622c-23.641,21.872-51.561,38.602-81.997,49.135
			c-0.085,0-0.137,0.102-0.222,0.128s-0.171,0-0.247,0c-1.954,0.836-48.034,20.096-48.034,93.303v51.2
			c0.002,0.917,0.152,1.827,0.444,2.697C51.679,217.653,61.441,237.698,114.51,237.698z M442.241,159.149v48.922
			c-2.79,3.516-16.452,15.846-66.995,11.699c8.934-45.372,21.388-89.98,37.248-133.419
			C423.468,94.475,442.241,114.835,442.241,159.149z M203.914,17.112c15.334,9.053,32.787,13.896,50.594,14.037
			c17.823-0.145,35.288-5.019,50.611-14.123l7.876,7.876c-4.924,13.338-21.965,51.618-58.487,65.365
			c-36.343-13.696-53.487-51.985-58.47-65.348L203.914,17.112z M182.58,37.344c8.252,19.558,28.723,56.67,69.231,70.17
			c1.723,0.569,3.584,0.569,5.308,0c40.508-13.5,60.979-50.611,69.231-70.17c21.137,17.614,45.005,31.662,70.665,41.591
			c-11.366,30.362-48.64,137.387-48.64,233.813c-0.706,53.204,3.983,106.342,13.995,158.601c0.942,4.306-1.585,8.612-5.803,9.89
			c-16.282,4.881-47.198,10.709-102.059,10.709s-85.777-5.828-102.05-10.709c-4.221-1.275-6.752-5.582-5.811-9.89
			c10.012-52.258,14.701-105.397,13.995-158.601c0-96.427-37.274-203.452-48.64-233.813C137.631,68.998,161.469,54.95,182.58,37.344
			z M66.774,159.149c0-44.314,18.773-64.674,29.747-72.806c15.857,43.431,28.31,88.03,37.248,133.393
			c-51.337,4.267-64.623-8.533-66.995-11.494V159.149z"/>
		<path d="M183.741,67.783c-3.332-3.331-8.734-3.331-12.066,0c-9.398,6.614-19.795,11.679-30.797,15.002
			c-4.477,1.489-6.899,6.326-5.41,10.803c1.489,4.477,6.326,6.899,10.803,5.41c2.816-0.939,27.793-9.455,37.47-19.132
			c1.605-1.601,2.507-3.775,2.507-6.042C186.248,71.557,185.346,69.383,183.741,67.783z"/>
		<path d="M362.745,98.98c4.477,1.489,9.314-0.933,10.803-5.41c1.489-4.477-0.933-9.314-5.41-10.803
			c-11.002-3.321-21.4-8.386-30.797-15.002c-3.348-3.234-8.671-3.188-11.962,0.104s-3.338,8.614-0.104,11.962
			C334.952,89.525,359.929,98.042,362.745,98.98z"/>
		<path d="M166.7,165.208c0.367-0.405,0.709-0.833,1.024-1.28c0.32-0.478,0.578-0.994,0.768-1.536
			c0.26-0.507,0.431-1.056,0.503-1.621c0.106-0.534,0.166-1.077,0.179-1.621c0.02-3.467-2.059-6.601-5.261-7.931
			c-3.202-1.329-6.89-0.59-9.331,1.872c-1.592,1.614-2.481,3.792-2.475,6.059c-0.028,0.546,0.03,1.093,0.171,1.621
			c0.093,0.551,0.233,1.094,0.418,1.621c0.255,0.528,0.54,1.041,0.853,1.536c0.315,0.447,0.657,0.875,1.024,1.28
			c3.365,3.3,8.752,3.3,12.117,0H166.7z"/>
		<path d="M185.388,138.268c-2.107-4.218-7.234-5.93-11.452-3.823c-4.218,2.107-5.93,7.234-3.823,11.452l8.533,17.067
			c2.107,4.218,7.234,5.93,11.452,3.823c4.218-2.107,5.93-7.234,3.823-11.452L185.388,138.268z"/>
		<path d="M204.204,162.963c2.107,4.218,7.234,5.93,11.452,3.823s5.93-7.234,3.823-11.452l-17.067-34.133
			c-2.107-4.218-7.234-5.93-11.452-3.823c-4.218,2.107-5.93,7.234-3.823,11.452L204.204,162.963z"/>
		<path d="M287.711,177.316l17.067,11.383c5.725,3.829,13.193,3.829,18.918,0l17.067-11.375c4.755-3.164,7.612-8.497,7.612-14.208
			v-38.101c0-9.426-7.641-17.067-17.067-17.067h-34.133c-9.426,0-17.067,7.641-17.067,17.067v38.101
			C280.109,168.824,282.962,174.152,287.711,177.316z M297.174,125.016h34.133v38.11l-17.067,11.383l-17.067-11.375V125.016z"/>
	</g>
</g>
<g>
</g>
<g>
</g>
<g>
</g>
<g>
</g>
<g>
</g>
<g>
</g>
<g>
</g>
<g>
</g>
<g>
</g>
<g>
</g>
<g>
</g>
<g>
</g>
<g>
</g>
<g>
</g>
<g>
</g>
</svg>
