<svg id="Capa_1" enable-background="new 0 0 512 512" height="512" viewBox="0 0 512 512" width="512" xmlns="http://www.w3.org/2000/svg"><g><g><path d="m144.5 63.343v-32.679c0-12.793 10.371-23.164 23.164-23.164h176.672c12.793 0 23.164 10.371 23.164 23.164v32.679c0 7.05 3.211 13.717 8.723 18.112 18.851 15.03 37.702 30.06 56.553 45.09 5.513 4.395 8.723 11.062 8.723 18.112v336.679c0 12.793-10.371 23.164-23.164 23.164h-324.671c-12.793 0-23.164-10.371-23.164-23.164v-336.679c0-7.05 3.211-13.717 8.723-18.112l56.553-45.09c5.513-4.395 8.724-11.061 8.724-18.112z" fill="#e4f6ff"/><path d="m161.5 39.66v32.68c0 .23 0 .46-.02.69-.19 6.79-3.37 13.17-8.7 17.43-18.85 15.03-37.71 30.05-56.56 45.08-5.51 4.4-8.72 11.07-8.72 18.12v336.68c0 5.32 1.79 10.21 4.8 14.12-12.16-.7-21.8-10.79-21.8-23.12v-336.68c0-7.05 3.21-13.72 8.72-18.12 18.85-15.03 37.71-30.05 56.56-45.08 5.33-4.26 8.51-10.64 8.7-17.43.02-.23.02-.46.02-.69v-32.68z" fill="#cbe2ff"/><path d="m367.5 30.66v27.07l-114.03 36.63-108.97-35.01v-28.69c0-8.77 4.87-16.4 12.06-20.34 3.3-1.8 7.08-2.82 11.1-2.82h176.68c3.98 0 7.73 1 11 2.77 7.24 3.92 12.16 11.58 12.16 20.39z" fill="#e4f6ff"/><path d="m268.787 128.5 38.375 262.858c.836 5.713-1.232 11.467-5.513 15.341l-34.037 30.795c-6.592 5.965-16.632 5.965-23.224 0l-34.037-30.795c-4.282-3.874-6.349-9.628-5.513-15.341l38.662-262.858z" fill="#5ea570"/><path d="m300 69.5h-88l-9.5 17 36.934 68h33.132l36.934-68z" fill="#5ea570"/><path d="m309.5 86.5-20.49 37.73-27.37-54.73h38.36z" fill="#518f60"/><path d="m219.84 386.36 30.527-207.587c.361-2.454 2.466-4.273 4.947-4.273h20.186l-2.918-20.002-11.189.013c-3.669.004-7.045-2.002-8.796-5.226l-19.448-35.811c-1.559-2.871-1.618-6.323-.156-9.245l17.367-34.729h-22.36-16l-9.5 17 20.49 37.73v-.001l14.88 27.399c1.013 1.866 1.406 4.006 1.122 6.11l-2.262 16.762h.005l-31.895 216.86c-.84 5.71 1.23 11.46 5.51 15.34l34.04 30.79c6.44 5.84 16.18 5.97 22.77.39l-41.81-36.18c-4.28-3.88-6.35-9.63-5.51-15.34z" fill="#518f60"/><g fill="#bed8fb"><path d="m367.56 64.92-37.31 83.28c-1.29 2.91-5.4 3-6.82.15l-39.43-78.85 71.34-59.23c7.24 3.92 12.16 11.58 12.16 20.39v32.68c0 .53.02 1.05.06 1.58z"/><path d="m228 69.5-39.43 78.85c-1.42 2.85-5.53 2.76-6.82-.15l-37.27-84.17c.02-.23.02-.46.02-.69v-32.68c0-8.77 4.87-16.4 12.06-20.34z"/></g></g><g><path d="m437.452 120.681-56.553-45.09c-3.749-2.989-5.899-7.453-5.899-12.247v-32.68c0-16.908-13.756-30.664-30.664-30.664h-176.672c-16.908 0-30.664 13.756-30.664 30.664v32.68c0 4.794-2.15 9.258-5.899 12.247l-56.553 45.09c-7.339 5.851-11.548 14.59-11.548 23.975v258.344c0 4.143 3.357 7.5 7.5 7.5s7.5-3.357 7.5-7.5v-258.344c0-4.794 2.15-9.258 5.899-12.247 1.505-1.593 61.932-48.52 60.714-49.109l30.282 67.951c3.458 8.573 16.543 8.872 20.388.454l16.258-32.517 20.16 36.807-23.549 160.919c-.6 4.099 2.236 7.907 6.335 8.507.368.054.733.08 1.096.08 3.661 0 6.865-2.685 7.411-6.415l22.988-157.086h20.036l33.723 230.444c.475 3.244-.693 6.493-3.125 8.692l-34.036 30.796c-3.752 3.395-9.41 3.395-13.16 0l-34.037-30.797c-2.431-2.198-3.599-5.447-3.124-8.691l5.613-38.358c.6-4.099-2.236-7.907-6.335-8.507-4.099-.599-7.907 2.236-8.507 6.335l-5.613 38.358c-1.201 8.206 1.754 16.426 7.902 21.987l34.036 30.796c4.745 4.293 10.694 6.438 16.645 6.438s11.899-2.146 16.645-6.438l34.035-30.795c6.149-5.563 9.104-13.782 7.903-21.988l-34.284-234.277 20.16-36.807 16.258 32.517c1.932 3.863 5.775 6.233 10.076 6.233.087 0 .174-.001.261-.003 4.406-.098 8.258-2.659 10.051-6.685l30.282-67.95c-1.558.244 59.48 47.79 60.714 49.109 3.749 2.989 5.899 7.453 5.899 12.247v61.344c0 4.143 3.357 7.5 7.5 7.5s7.5-3.357 7.5-7.5v-61.344c0-9.385-4.209-18.124-11.548-23.975zm-252.062 17.269-33.39-74.925v-32.361c0-4.23 1.693-8.067 4.427-10.888l22.78 18.929c3.167 2.636 7.903 2.223 10.562-.976 2.647-3.186 2.211-7.914-.976-10.562l-14.643-12.167h163.7l-56.559 47h-50.581l-14.917-12.396c-3.185-2.647-7.914-2.211-10.562.976-2.647 3.186-2.211 7.914.976 10.562l12.425 10.325zm82.733 9.05h-24.246l-24.174-44.135 12.932-25.865h46.729l12.932 25.865zm58.487-9.05-33.242-66.483 62.204-51.691c2.735 2.822 4.427 6.659 4.427 10.888v32.361z"/><path d="m441.5 233.5c-4.143 0-7.5 3.357-7.5 7.5v240.336c0 8.637-7.027 15.664-15.664 15.664h-324.672c-8.637 0-15.664-7.027-15.664-15.664v-43.336c0-4.143-3.357-7.5-7.5-7.5s-7.5 3.357-7.5 7.5v43.336c0 16.908 13.756 30.664 30.664 30.664h324.672c16.908 0 30.664-13.756 30.664-30.664v-240.336c0-4.143-3.357-7.5-7.5-7.5z"/></g></g></svg>