<svg id="Layer_1" enable-background="new 0 0 512 512" height="512" viewBox="0 0 512 512" width="512" xmlns="http://www.w3.org/2000/svg"><g><g><path d="m391 70h-45v-60c-41.294 0-143.776 0-180 0v60h-45c-33.14 0-60 26.86-60 60v246h75v126h240c0-19.05 0-94.901 0-126h75v-246c0-33.14-26.86-60-60-60z" fill="#8bf2cf"/><g fill="#ffda8f"><path d="m376 376h75v60h-75z"/><path d="m136 196v120h240c0-14.518 0-105.386 0-120z"/><path d="m61 376h75v60h-75z"/></g></g><g><path d="m61 446h65v56c0 5.523 4.478 10 10 10h75c5.522 0 10-4.477 10-10s-4.478-10-10-10h-65v-166h220v166h-65c-5.522 0-10 4.477-10 10s4.478 10 10 10h75c5.522 0 10-4.477 10-10v-56h65c5.522 0 10-4.477 10-10v-306c0-38.598-31.401-70-70-70h-35v-50c0-5.523-4.478-10-10-10h-180c-5.522 0-10 4.477-10 10v50h-35c-38.599 0-70 31.402-70 70v306c0 5.523 4.478 10 10 10zm10-20v-40h55v40zm295-180h-220v-40h220zm-220 60v-40h220v40zm240 120v-40h55v40zm-265-346h45c5.522 0 10-4.477 10-10v-50h40v50c0 5.523 4.478 10 10 10s10-4.477 10-10v-50h40v50c0 5.523 4.478 10 10 10s10-4.477 10-10v-50h40v50c0 5.523 4.478 10 10 10h45c27.57 0 50 22.43 50 50v236h-55v-206c0-5.523-4.478-10-10-10s-10 4.477-10 10v26h-220v-26c0-5.523-4.478-10-10-10s-10 4.477-10 10v206h-55v-236c0-27.57 22.43-50 50-50z"/><circle cx="256" cy="502" r="10"/></g></g></svg>